<?xml version="1.0" standalone="no"?>
<!DOCTYPE svg PUBLIC "-//W3C//DTD SVG 20010904//EN"
 "http://www.w3.org/TR/2001/REC-SVG-20010904/DTD/svg10.dtd">
<svg version="1.0" xmlns="http://www.w3.org/2000/svg"
 width="301.000000pt" height="301.000000pt" viewBox="0 0 301.000000 301.000000"
 preserveAspectRatio="xMidYMid meet">
<metadata>
Created by potrace 1.14, written by Peter Selinger 2001-2017
</metadata>
<g transform="translate(0.000000,301.000000) scale(0.100000,-0.100000)"
fill="#000000" stroke="none">
<path d="M1375 3003 c-531 -55 -987 -371 -1218 -843 -35 -72 -99 -253 -112
-315 -24 -115 -35 -228 -36 -342 0 -73 2 -136 4 -140 3 -5 8 -36 11 -71 4 -34
18 -104 31 -156 124 -479 457 -851 923 -1035 51 -20 183 -58 232 -67 122 -21
186 -27 290 -27 314 -1 587 82 846 255 352 235 592 617 651 1038 10 70 10 339
0 407 -49 342 -204 647 -452 886 -44 42 -200 167 -208 167 -3 0 -26 14 -51 31
-123 82 -352 166 -546 200 -62 11 -301 18 -365 12z m787 -752 c4 -1 13 -7 21
-15 12 -12 14 -90 14 -465 0 -504 2 -491 -66 -491 -77 0 -74 -18 -74 388 0
199 -2 362 -5 362 -5 0 -20 -13 -231 -210 -67 -63 -134 -121 -148 -128 -48
-26 -111 24 -93 73 4 11 30 40 56 64 27 25 81 74 119 110 39 36 128 120 199
186 122 114 152 135 186 129 8 -1 18 -3 22 -3z m-1324 -33 c13 -13 325 -321
692 -686 430 -426 670 -672 675 -689 10 -41 -23 -78 -69 -78 -35 0 -66 29
-726 684 -379 376 -692 692 -696 703 -8 27 13 74 39 86 30 13 55 7 85 -20z
m119 -650 c317 -274 323 -280 323 -309 0 -22 -7 -32 -31 -45 -51 -26 -59 -21
-263 160 -78 69 -98 85 -107 86 -4 0 -7 -151 -7 -336 -1 -241 -4 -340 -13
-350 -7 -8 -30 -14 -55 -14 -73 0 -71 -12 -70 461 1 462 -1 449 66 449 34 0
51 -11 157 -102z"/>
</g>
</svg>
